<svg xmlns="http://www.w3.org/2000/svg" viewBox="0 0 800 250" width="100%" height="100%">
  <rect width="800" height="250" fill="#0F172A" rx="16"/>

  <g transform="translate(60, 45)">
    <path d="M 75,10 L 135,45 L 135,115 L 75,150 L 15,115 L 15,45 Z" fill="none" stroke="#1E293B" stroke-width="8" stroke-linejoin="round"/>

    <path d="M 75,15 L 120,95 L 90,95 L 90,140 L 75,160 L 60,140 L 60,95 L 30,95 Z" fill="#06B6D4" stroke="#0F172A" stroke-width="2" stroke-linejoin="round"/>
    
    <path d="M 75,15 L 120,95 L 90,95 L 75,65 Z" fill="#F59E0B"/>
    
    <path d="M 55,105 L 95,115" stroke="#0F172A" stroke-width="6" stroke-linecap="round"/>
    <path d="M 60,125 L 90,135" stroke="#0F172A" stroke-width="6" stroke-linecap="round"/>
    
    <path d="M 45,65 L 55,75 L 45,85" fill="none" stroke="#0F172A" stroke-width="3" stroke-linecap="round" stroke-linejoin="round"/>
    <path d="M 105,65 L 95,75 L 105,85" fill="none" stroke="#0F172A" stroke-width="3" stroke-linecap="round" stroke-linejoin="round"/>
  </g>

  <text x="230" y="130" font-family="system-ui, -apple-system, sans-serif" font-weight="900" font-size="76" fill="#F8FAFC" letter-spacing="-1">
    ALGO<tspan fill="#F59E0B">DRILL</tspan>
  </text>

  <text x="235" y="175" font-family="system-ui, -apple-system, sans-serif" font-weight="600" font-size="18" fill="#94A3B8" letter-spacing="5">
    MASTER YOUR ALGORITHMS
  </text>
</svg>
